<?xml version="1.0" encoding="utf-8"?>
<!-- Generator: Adobe Illustrator 23.0.6, SVG Export Plug-In . SVG Version: 6.00 Build 0)  -->
<svg version="1.1" xmlns="http://www.w3.org/2000/svg" xmlns:xlink="http://www.w3.org/1999/xlink" x="0px" y="0px"
	 viewBox="0 0 64 64" style="enable-background:new 0 0 64 64;" xml:space="preserve">
<style type="text/css">
	.st0{display:none;}
	.st1{display:inline;fill:#C75C5C;}
	.st2{display:inline;opacity:0.2;fill:#231F20;enable-background:new    ;}
	.st3{display:inline;opacity:0.2;}
	.st4{fill:#231F20;}
	.st5{display:inline;fill:#E0E0D1;}
	.st6{display:inline;}
	.st7{fill:#F5CF87;}
</style>
<g id="Layer_1" class="st0">
	<circle class="st1" cx="32" cy="32" r="32"/>
	<path class="st2" d="M32,16c9.9,0,18,8.1,18,18s-8.1,18-18,18s-18-8.1-18-18S22.1,16,32,16 M32,12c-12.1,0-22,9.9-22,22
		s9.9,22,22,22s22-9.8,22-22S44.2,12,32,12L32,12z"/>
	<g class="st3">
		<path class="st4" d="M28,44.6c-0.3,0-0.7-0.1-1-0.3c-0.6-0.4-1-1-1-1.7V25.4c0-0.7,0.4-1.4,1-1.7s1.4-0.4,2,0l12,8.6
			c0.6,0.4,1,1,1,1.7s-0.4,1.4-1,1.7l-12,8.6C28.7,44.5,28.3,44.6,28,44.6z"/>
	</g>
	<path class="st5" d="M32,14c9.9,0,18,8.1,18,18s-8.1,18-18,18s-18-8.1-18-18S22.1,14,32,14 M32,10c-12.1,0-22,9.9-22,22
		s9.9,22,22,22s22-9.8,22-22S44.2,10,32,10L32,10z"/>
	<g class="st6">
		<path class="st7" d="M28,42.6c-0.3,0-0.7-0.1-1-0.3c-0.6-0.4-1-1-1-1.7V23.4c0-0.7,0.4-1.4,1-1.7s1.4-0.4,2,0l12,8.6
			c0.6,0.4,1,1,1,1.7c0,0.7-0.4,1.4-1,1.7l-12,8.6C28.7,42.5,28.3,42.6,28,42.6z"/>
	</g>
</g>
<g id="Layer_2">
	
		<image style="overflow:visible;enable-background:new    ;" width="230" height="173" xlink:href="3CFE70E6.png"  transform="matrix(0.2481 0 0 0.2481 2.4032 10)">
	</image>
</g>
</svg>
